<?xml version="1.0" encoding="UTF-8"?>
<svg xmlns="http://www.w3.org/2000/svg" viewBox="0 0 128 128" width="128" height="128">
  <!-- Background circle -->
  <circle cx="64" cy="64" r="60" fill="#0176D3" />
  
  <!-- Gear icon -->
  <g fill="#FFFFFF">
    <!-- Outer gear teeth -->
    <path d="M64,32c2.2,0,4.3,0.2,6.4,0.5l2,10.2c2.1,0.6,4.1,1.4,6,2.4l8.2-6.4c3.4,2.4,6.4,5.4,8.8,8.8l-6.4,8.2
    c1,1.9,1.8,3.9,2.4,6l10.2,2c0.3,2.1,0.5,4.2,0.5,6.4s-0.2,4.3-0.5,6.4l-10.2,2c-0.6,2.1-1.4,4.1-2.4,6l6.4,8.2
    c-2.4,3.4-5.4,6.4-8.8,8.8l-8.2-6.4c-1.9,1-3.9,1.8-6,2.4l-2,10.2c-2.1,0.3-4.2,0.5-6.4,0.5s-4.3-0.2-6.4-0.5l-2-10.2
    c-2.1-0.6-4.1-1.4-6-2.4l-8.2,6.4c-3.4-2.4-6.4-5.4-8.8-8.8l6.4-8.2c-1-1.9-1.8-3.9-2.4-6l-10.2-2c-0.3-2.1-0.5-4.2-0.5-6.4
    s0.2-4.3,0.5-6.4l10.2-2c0.6-2.1,1.4-4.1,2.4-6l-6.4-8.2c2.4-3.4,5.4-6.4,8.8-8.8l8.2,6.4c1.9-1,3.9-1.8,6-2.4l2-10.2
    C59.7,32.2,61.8,32,64,32z" />
    
    <!-- Central circle -->
    <circle cx="64" cy="64" r="20" />
    
    <!-- 'S' letter in Salesforce style -->
    <path d="M64,52c6.6,0,12,5.4,12,12c0,3.7-1.7,7-4.3,9.2c-1.4,1.2-2.3,2.9-2.3,4.8c0,0.6,0.5,1,1,1h6c0.6,0,1,0.4,1,1
    s-0.4,1-1,1H53c-0.6,0-1-0.4-1-1s0.4-1,1-1h6c0.6,0,1-0.4,1-1c0-1.9-0.9-3.6-2.3-4.8C55.1,71,53.4,67.7,53.4,64
    C53.4,57.4,57.4,52,64,52z M64,56c-4.4,0-8,3.6-8,8c0,2.8,1.4,5.2,3.6,6.6c2.1,1.4,3.5,3.7,3.8,6.4h1.3c0.4-2.6,1.7-5,3.8-6.4
    c2.1-1.4,3.5-3.9,3.5-6.6C72,59.6,68.4,56,64,56z" />
  </g>
</svg>

